<svg width="80" height="121" viewBox="0 0 80 121" fill="none" xmlns="http://www.w3.org/2000/svg">
<path fill-rule="evenodd" clip-rule="evenodd" d="M79.9685 41.6009C79.1282 62.9502 61.5552 80 40 80C37.612 80 35.2729 79.7907 33 79.3896V121H22V42.1757C22.3054 35.2216 25.321 28.6126 30.4757 23.6709C35.9191 18.4525 43.3019 15.5208 51 15.5208C58.6981 15.5208 66.0809 18.4525 71.5243 23.6709C76.5367 28.4763 79.5266 34.8582 79.9685 41.6009ZM11 121V43.3471V41.4298H11.05C11.5442 31.9576 15.687 22.9699 22.7157 16.2316C30.2172 9.04013 40.3913 5 51 5C54.6533 5 58.2551 5.47912 61.7139 6.40106C55.4604 2.35136 48.0048 0 40 0C18.5793 0 1.09119 16.8378 0.0491304 38H0V40V121H11Z" fill="#090025"/>
</svg>
